<?xml version="1.0" encoding="UTF-8"?>
<svg width="16px" height="16px" viewBox="0 0 16 16" version="1.1" xmlns="http://www.w3.org/2000/svg" xmlns:xlink="http://www.w3.org/1999/xlink">
    <!-- Generator: Sketch 52.5 (67469) - http://www.bohemiancoding.com/sketch -->
    <title>date</title>
    <desc>Created with Sketch.</desc>
    <defs>
        <path d="M10,3.6 L6,3.6 L6,4 C6,4.55228475 5.55228475,5 5,5 C4.44771525,5 4,4.55228475 4,4 L4,3.6 L2.6,3.6 L2.6,13.4 L13.4,13.4 L13.4,3.6 L12,3.6 L12,4 C12,4.55228475 11.5522847,5 11,5 C10.4477153,5 10,4.55228475 10,4 L10,3.6 Z M12,2 L14,2 C14.5522847,2 15,2.44771525 15,3 L15,14 C15,14.5522847 14.5522847,15 14,15 L2,15 C1.44771525,15 1,14.5522847 1,14 L1,3 C1,2.44771525 1.44771525,2 2,2 L4,2 L4,1 C4,0.44771525 4.44771525,1.01453063e-16 5,0 C5.55228475,-1.01453063e-16 6,0.44771525 6,1 L6,2 L10,2 L10,1 C10,0.44771525 10.4477153,1.01453063e-16 11,0 C11.5522847,-1.01453063e-16 12,0.44771525 12,1 L12,2 Z" id="path-date-c"></path>
    </defs>
    <g id="date" stroke="none" stroke-width="1" fill="none" fill-rule="evenodd">
        <mask id="mask-date-c" fill="white">
            <use xlink:href="#path-date-c"></use>
        </mask>
        <use id="Combined-Shape" fill="#000000" fill-rule="nonzero" xlink:href="#path-date-c"></use>
        <g id="colors" mask="url(#mask-date-c)"></g>
    </g>
</svg>