<?xml version="1.0" encoding="UTF-8"?>
<svg width="16px" height="16px" viewBox="0 0 16 16" version="1.1" xmlns="http://www.w3.org/2000/svg" xmlns:xlink="http://www.w3.org/1999/xlink">
    <!-- Generator: Sketch 52.6 (67491) - http://www.bohemiancoding.com/sketch -->
    <title>hide</title>
    <desc>Created with Sketch.</desc>
    <defs>
        <path d="M4.4855239,11.0145303 L5.65791502,9.87491159 C5.24624111,9.36132596 5,8.70941932 5,8 C5,6.34314575 6.34314575,5 8,5 C8.73997978,5 9.41738507,5.26791328 9.940508,5.71203199 L11.0493583,4.63417795 C10.049454,3.93707376 9.03298685,3.6 8,3.6 C5.89345446,3.6 3.85560832,5.00177097 1.88682909,8 C2.74009746,9.29943163 3.60633904,10.298992 4.4855239,11.0145303 Z M5.86746428,11.90256 C6.57029982,12.2367655 7.28114993,12.4 8,12.4 C10.1065455,12.4 12.1443917,10.998229 14.1131709,8 C13.5062042,7.075658 12.8926728,6.30305363 12.2725877,5.67648207 L10.8496634,7.05963076 C10.9472144,7.35541159 11,7.67154142 11,8 C11,9.65685425 9.65685425,11 8,11 C7.6415917,11 7.29786298,10.9371492 6.97923417,10.821868 L5.86746428,11.90256 Z M4.66059003,13.075698 L2.5576109,15.1198915 C2.24079479,15.4278515 1.73431369,15.4206722 1.42635369,15.1038561 C1.1183937,14.78704 1.12557299,14.2805589 1.4423891,13.9725989 L3.33311288,12.1347274 C2.16749034,11.1479824 1.05645271,9.76973988 0,8 C2.38781467,4 5.05448133,2 8,2 C9.47421663,2 10.8785822,2.50098999 12.2130968,3.50296996 L14.349431,1.42635369 C14.6662471,1.1183937 15.1727282,1.12557299 15.4806882,1.4423891 C15.7886482,1.75920521 15.7814689,2.26568631 15.4646528,2.57364631 L13.4180681,4.56302192 C14.3121757,5.46867136 15.1728196,6.61433072 16,8 C13.6121853,12 10.9455187,14 8,14 C6.8439061,14 5.73076944,13.6918993 4.66059003,13.075698 Z" id="path-hide"></path>
    </defs>
    <g id="hide" stroke="none" stroke-width="1" fill="none" fill-rule="evenodd">
        <mask id="mask-hide" fill="white">
            <use xlink:href="#path-hide"></use>
        </mask>
        <use id="Combined-Shape" fill="#979797" fill-rule="nonzero" xlink:href="#path-hide"></use>
        <g id="color" mask="url(#mask-hide)" fill-rule="nonzero"></g>
    </g>
</svg>