<?xml version="1.0" encoding="UTF-8"?>
<svg width="20px" height="20px" viewBox="0 0 20 20" version="1.1" xmlns="http://www.w3.org/2000/svg" xmlns:xlink="http://www.w3.org/1999/xlink">
    <!-- Generator: Sketch 52.5 (67469) - http://www.bohemiancoding.com/sketch -->
    <title>nav-profile</title>
    <desc>Created with Sketch.</desc>
    <defs>
        <path d="M16.6666667,18.3333333 L16.6666667,15 C16.6666667,14.0795254 15.9204746,13.3333333 15,13.3333333 L5,13.3333333 C4.07952542,13.3333333 3.33333333,14.0795254 3.33333333,15 L3.33333333,18.3333333 L16.6666667,18.3333333 Z M5,11.6666667 L15,11.6666667 C16.8409492,11.6666667 18.3333333,13.1590508 18.3333333,15 L18.3333333,19.1666667 C18.3333333,19.626904 17.9602373,20 17.5,20 L2.5,20 C2.03976271,20 1.66666667,19.626904 1.66666667,19.1666667 L1.66666667,15 C1.66666667,13.1590508 3.15905083,11.6666667 5,11.6666667 Z M10,1.66666667 C8.61928813,1.66666667 7.5,2.78595479 7.5,4.16666667 L7.5,5.83333333 C7.5,7.21404521 8.61928813,8.33333333 10,8.33333333 C11.3807119,8.33333333 12.5,7.21404521 12.5,5.83333333 L12.5,4.16666667 C12.5,2.78595479 11.3807119,1.66666667 10,1.66666667 Z M10,0 C12.3011865,-3.70074342e-16 14.1666667,1.86548021 14.1666667,4.16666667 L14.1666667,5.83333333 C14.1666667,8.13451979 12.3011865,10 10,10 C7.69881354,10 5.83333333,8.13451979 5.83333333,5.83333333 L5.83333333,4.16666667 C5.83333333,1.86548021 7.69881354,4.62592927e-16 10,0 Z" id="path-n-prof"></path>
    </defs>
    <g id="nav-profile" stroke="none" stroke-width="1" fill="none" fill-rule="evenodd">
        <mask id="mask-n-prof" fill="white">
            <use xlink:href="#path-n-prof"></use>
        </mask>
        <use id="Combined-Shape" fill="#000000" fill-rule="nonzero" xlink:href="#path-n-prof"></use>
        <g id="colors" mask="url(#mask-n-prof)"></g>
    </g>
</svg>