<?xml version="1.0" encoding="UTF-8"?>
<svg width="32px" height="32px" viewBox="0 0 32 32" version="1.1" xmlns="http://www.w3.org/2000/svg" xmlns:xlink="http://www.w3.org/1999/xlink">
    <!-- Generator: Sketch 52.5 (67469) - http://www.bohemiancoding.com/sketch -->
    <title>notification</title>
    <desc>Created with Sketch.</desc>
    <defs>
        <path d="M16,24.6842105 C14.6086023,24.6842105 13.4736842,23.5492924 13.4736842,22.1578947 C13.4736842,21.6928128 13.8507076,21.3157895 14.3157895,21.3157895 L17.6842105,21.3157895 C18.1492924,21.3157895 18.5263158,21.6928128 18.5263158,22.1578947 C18.5263158,23.5492924 17.3913977,24.6842105 16,24.6842105 Z M23.7533531,20.7203311 C23.9112785,20.8782565 24,21.0924493 24,21.3157895 L24,22.1578947 C24,22.6229766 23.6229766,23 23.1578947,23 L8.84210526,23 C8.37702337,23 8,22.6229766 8,22.1578947 L8,21.3157895 C8,21.0924493 8.08872155,20.8782565 8.24664692,20.7203311 L9.68421053,19.2827675 L9.68421053,15 C9.68421053,12.287672 11.408448,9.92618997 13.8954797,9.04868632 C13.9253912,7.91088701 14.8548896,7 16,7 C17.1451104,7 18.0746088,7.91088701 18.1045203,9.04868632 C20.591552,9.92618997 22.3157895,12.287672 22.3157895,15 L22.3157895,19.2827675 L23.7533531,20.7203311 Z M20.8782259,20.2270373 C20.7203005,20.0691119 20.6315789,19.8549191 20.6315789,19.6315789 L20.6315789,15 C20.6315789,12.8435717 19.1441553,10.988986 17.0690098,10.4973139 C16.6892326,10.4073319 16.4210526,10.0681862 16.4210526,9.67789474 L16.4210526,9.10526316 C16.4210526,8.87139768 16.2338655,8.68421053 16,8.68421053 C15.7661345,8.68421053 15.5789474,8.87139768 15.5789474,9.10526316 L15.5789474,9.67789474 C15.5789474,10.0681862 15.3107674,10.4073319 14.9309902,10.4973139 C12.8558447,10.988986 11.3684211,12.8435717 11.3684211,15 L11.3684211,19.6315789 C11.3684211,19.8549191 11.2796995,20.0691119 11.1217741,20.2270373 L10.0330219,21.3157895 L21.9669781,21.3157895 L20.8782259,20.2270373 Z" id="path-notifi"></path>
    </defs>
    <g id="notification" stroke="none" stroke-width="1" fill="none" fill-rule="evenodd">
        <mask id="mask-notifi" fill="white">
            <use xlink:href="#path-notifi"></use>
        </mask>
        <use id="Shape" fill="#000000" fill-rule="nonzero" xlink:href="#path-notifi"></use>
        <g id="colors" mask="url(#mask-notifi)"></g>
    </g>
</svg>