<?xml version="1.0" encoding="UTF-8"?>
<svg width="16px" height="16px" viewBox="0 0 16 16" version="1.1" xmlns="http://www.w3.org/2000/svg" xmlns:xlink="http://www.w3.org/1999/xlink">
    <title>add</title>
    <defs>
        <path d="M8.82352941,7.17647059 L14.1764706,7.17647059 C14.6312933,7.17647059 15,7.54517726 15,8 C15,8.45482274 14.6312933,8.82352941 14.1764706,8.82352941 L8.82352941,8.82352941 L8.82352941,14.1764706 C8.82352941,14.6312933 8.45482274,15 8,15 C7.54517726,15 7.17647059,14.6312933 7.17647059,14.1764706 L7.17647059,8.82352941 L1.82352941,8.82352941 C1.36870668,8.82352941 1,8.45482274 1,8 C1,7.54517726 1.36870668,7.17647059 1.82352941,7.17647059 L7.17647059,7.17647059 L7.17647059,1.82352941 C7.17647059,1.36870668 7.54517726,1 8,1 C8.45482274,1 8.82352941,1.36870668 8.82352941,1.82352941 L8.82352941,7.17647059 Z" id="path-add-1"></path>
    </defs>
    <g id="add" stroke="none" stroke-width="1" fill="none" fill-rule="evenodd">
        <mask id="mask-2" fill="white">
            <use xlink:href="#path-add-1"></use>
        </mask>
        <use id="Combined-Shape" fill="#979797" fill-rule="nonzero" xlink:href="#path-add-1"></use>
    </g>
</svg>