<?xml version="1.0" encoding="UTF-8"?>
<svg width="16px" height="16px" viewBox="0 0 16 16" version="1.1" xmlns="http://www.w3.org/2000/svg" xmlns:xlink="http://www.w3.org/1999/xlink">
    <!-- Generator: Sketch 52.5 (67469) - http://www.bohemiancoding.com/sketch -->
    <title>create</title>
    <desc>Created with Sketch.</desc>
    <defs>
        <path d="M8,2.4 C4.9072054,2.4 2.4,4.9072054 2.4,8 C2.4,11.0927946 4.9072054,13.6 8,13.6 C11.0927946,13.6 13.6,11.0927946 13.6,8 C13.6,4.9072054 11.0927946,2.4 8,2.4 Z M8,1 C11.8659932,1 15,4.13400675 15,8 C15,11.8659932 11.8659932,15 8,15 C4.13400675,15 1,11.8659932 1,8 C1,4.13400675 4.13400675,1 8,1 Z M8.75675676,8.75675676 L8.75675676,11.2432432 C8.75675676,11.6611885 8.41794522,12 8,12 C7.58205478,12 7.24324324,11.6611885 7.24324324,11.2432432 L7.24324324,8.75675676 L4.75675676,8.75675676 C4.33881154,8.75675676 4,8.41794522 4,8 C4,7.58205478 4.33881154,7.24324324 4.75675676,7.24324324 L7.24324324,7.24324324 L7.24324324,4.75675676 C7.24324324,4.33881154 7.58205478,4 8,4 C8.41794522,4 8.75675676,4.33881154 8.75675676,4.75675676 L8.75675676,7.24324324 L11.2432432,7.24324324 C11.6611885,7.24324324 12,7.58205478 12,8 C12,8.41794522 11.6611885,8.75675676 11.2432432,8.75675676 L8.75675676,8.75675676 Z" id="path-create"></path>
    </defs>
    <g id="create" stroke="none" stroke-width="1" fill="none" fill-rule="evenodd">
        <mask id="mask-create" fill="white">
            <use xlink:href="#path-create"></use>
        </mask>
        <use id="Combined-Shape" fill="#000000" fill-rule="nonzero" xlink:href="#path-create"></use>
        <g id="colors" mask="url(#mask-create)"></g>
    </g>
</svg>