<?xml version="1.0" encoding="UTF-8"?>
<svg width="16px" height="16px" viewBox="0 0 16 16" version="1.1" xmlns="http://www.w3.org/2000/svg" xmlns:xlink="http://www.w3.org/1999/xlink">
    <!-- Generator: Sketch 52.5 (67469) - http://www.bohemiancoding.com/sketch -->
    <title>double-arrow-dropdown</title>
    <desc>Created with Sketch.</desc>
    <defs>
        <path d="M11.092719,7.52129046 C11.4497698,7.16423968 12.0286635,7.16423968 12.3857143,7.52129046 C12.7427651,7.87834124 12.7427651,8.45723493 12.3857143,8.81428571 L7.45350237,13.7464976 L2.52129046,8.81428571 C2.16423968,8.45723493 2.16423968,7.87834124 2.52129046,7.52129046 C2.87834124,7.16423968 3.45723493,7.16423968 3.81428571,7.52129046 L7.45350237,11.1605071 L11.092719,7.52129046 Z M7.45350237,6.16050711 L11.092719,2.52129046 C11.4497698,2.16423968 12.0286635,2.16423968 12.3857143,2.52129046 C12.7427651,2.87834124 12.7427651,3.45723493 12.3857143,3.81428571 L7.45350237,8.74649763 L2.52129046,3.81428571 C2.16423968,3.45723493 2.16423968,2.87834124 2.52129046,2.52129046 C2.87834124,2.16423968 3.45723493,2.16423968 3.81428571,2.52129046 L7.45350237,6.16050711 Z" id="path-dad"></path>
    </defs>
    <g id="double-arrow-dropdown" stroke="none" stroke-width="1" fill="none" fill-rule="evenodd">
        <mask id="mask-dad" fill="white">
            <use xlink:href="#path-dad"></use>
        </mask>
        <use id="Shape" fill="#000000" fill-rule="nonzero" transform="translate(7.453502, 8.000000) scale(-1, 1) rotate(-90.000000) translate(-7.453502, -8.000000) " xlink:href="#path-dad"></use>
        <g id="colors" mask="url(#mask-dad)"></g>
    </g>
</svg>