<?xml version="1.0" encoding="UTF-8"?>
<svg width="20px" height="20px" viewBox="0 0 20 20" version="1.1" xmlns="http://www.w3.org/2000/svg" xmlns:xlink="http://www.w3.org/1999/xlink">
    <!-- Generator: Sketch 52.5 (67469) - http://www.bohemiancoding.com/sketch -->
    <title>nav-logout</title>
    <desc>Created with Sketch.</desc>
    <defs>
        <path d="M5.1429774,10.8333333 L7.25592232,12.9462783 C7.58135923,13.2717152 7.58135923,13.7993526 7.25592232,14.1247896 C6.93048541,14.4502265 6.40284793,14.4502265 6.07741102,14.1247896 L2.54187711,10.5892557 C2.2164402,10.2638187 2.2164402,9.73618126 2.54187711,9.41074435 L6.07741102,5.87521044 C6.40284793,5.54977353 6.93048541,5.54977353 7.25592232,5.87521044 C7.58135923,6.20064735 7.58135923,6.72828484 7.25592232,7.05372175 L5.1429774,9.16666667 L12.9166667,9.16666667 C13.376904,9.16666667 13.75,9.53976271 13.75,10 C13.75,10.4602373 13.376904,10.8333333 12.9166667,10.8333333 L5.1429774,10.8333333 Z M3.33333333,4.7839743 C3.33333333,5.24421159 2.96023729,5.61730763 2.5,5.61730763 C2.03976271,5.61730763 1.66666667,5.24421159 1.66666667,4.7839743 L1.66666667,1.66666667 C1.66666667,0.746192084 2.41285875,1.85037171e-16 3.33333333,0 L16.6666667,0 C17.5871412,-1.85037171e-16 18.3333333,0.746192084 18.3333333,1.66666667 L18.3333333,18.3333333 C18.3333333,19.2538079 17.5871412,20 16.6666667,20 L3.33333333,20 C2.41285875,20 1.66666667,19.2538079 1.66666667,18.3333333 L1.66666667,15.2068686 C1.66666667,14.7466313 2.03976271,14.3735353 2.5,14.3735353 C2.96023729,14.3735353 3.33333333,14.7466313 3.33333333,15.2068686 L3.33333333,18.3333333 L16.6666667,18.3333333 L16.6666667,1.66666667 L3.33333333,1.66666667 L3.33333333,4.7839743 Z" id="path-n-logout"></path>
    </defs>
    <g id="nav-logout" stroke="none" stroke-width="1" fill="none" fill-rule="evenodd">
        <mask id="mask-n-logout" fill="white">
            <use xlink:href="#path-n-logout"></use>
        </mask>
        <use id="Combined-Shape" fill="#000000" fill-rule="nonzero" xlink:href="#path-n-logout"></use>
        <g id="colors" mask="url(#mask-n-logout)"></g>
    </g>
</svg>