<?xml version="1.0" encoding="UTF-8"?>
<svg width="20px" height="20px" viewBox="0 0 20 20" version="1.1" xmlns="http://www.w3.org/2000/svg" xmlns:xlink="http://www.w3.org/1999/xlink">
    <!-- Generator: Sketch 52.5 (67469) - http://www.bohemiancoding.com/sketch -->
    <title>nav-customers</title>
    <desc>Created with Sketch.</desc>
    <defs>
        <path d="M13.720726,13.3333333 L17.5628835,13.3333333 C18.7209045,13.3333333 19.4591269,13.9958749 19.7692964,15.1158197 C19.9660961,15.8264142 20,16.4738766 20,18.1666667 L20,19.1666667 C20,19.626904 19.626904,20 19.1666667,20 L13.3333333,20 L0.833333333,20 C0.373096042,20 0,19.626904 0,19.1666667 L0,15 C-1.85037171e-16,13.1590508 1.49238417,11.6666667 3.33333333,11.6666667 L10.8333333,11.6666667 C12.0671373,11.6666667 13.144377,12.3369977 13.720726,13.3333333 Z M14.1666667,15 L14.1666667,18.3333333 L18.3333333,18.3333333 L18.3333333,18.1666667 C18.3333333,15.5757206 18.1738871,15 17.5628835,15 L14.1666667,15 Z M12.5,18.3333333 L12.5,15 C12.5,14.0795254 11.7538079,13.3333333 10.8333333,13.3333333 L3.33333333,13.3333333 C2.41285875,13.3333333 1.66666667,14.0795254 1.66666667,15 L1.66666667,18.3333333 L12.5,18.3333333 Z M7.08333333,2.5 C5.9327401,2.5 5,3.4327401 5,4.58333333 L5,6.25 C5,7.40059323 5.9327401,8.33333333 7.08333333,8.33333333 C8.23392656,8.33333333 9.16666667,7.40059323 9.16666667,6.25 L9.16666667,4.58333333 C9.16666667,3.4327401 8.23392656,2.5 7.08333333,2.5 Z M7.08333333,0.833333333 C9.15440115,0.833333333 10.8333333,2.51226552 10.8333333,4.58333333 L10.8333333,6.25 C10.8333333,8.32106781 9.15440115,10 7.08333333,10 C5.01226552,10 3.33333333,8.32106781 3.33333333,6.25 L3.33333333,4.58333333 C3.33333333,2.51226552 5.01226552,0.833333333 7.08333333,0.833333333 Z M14.5833333,5.83333333 C13.8929774,5.83333333 13.3333333,6.3929774 13.3333333,7.08333333 L13.3333333,8.75 C13.3333333,9.44035594 13.8929774,10 14.5833333,10 C15.2736893,10 15.8333333,9.44035594 15.8333333,8.75 L15.8333333,7.08333333 C15.8333333,6.3929774 15.2736893,5.83333333 14.5833333,5.83333333 Z M14.5833333,4.16666667 C16.1941639,4.16666667 17.5,5.47250281 17.5,7.08333333 L17.5,8.75 C17.5,10.3608305 16.1941639,11.6666667 14.5833333,11.6666667 C12.9725028,11.6666667 11.6666667,10.3608305 11.6666667,8.75 L11.6666667,7.08333333 C11.6666667,5.47250281 12.9725028,4.16666667 14.5833333,4.16666667 Z" id="path-n-cust"></path>
    </defs>
    <g id="nav-customers" stroke="none" stroke-width="1" fill="none" fill-rule="evenodd">
        <mask id="mask-n-cust" fill="white">
            <use xlink:href="#path-n-cust"></use>
        </mask>
        <use id="Combined-Shape" fill="#000000" fill-rule="nonzero" xlink:href="#path-n-cust"></use>
        <g id="colors" mask="url(#mask-n-cust)"></g>
    </g>
</svg>