<?xml version="1.0" encoding="UTF-8"?>
<svg width="16px" height="16px" viewBox="0 0 16 16" version="1.1" xmlns="http://www.w3.org/2000/svg" xmlns:xlink="http://www.w3.org/1999/xlink">
    <!-- Generator: Sketch 52.5 (67469) - http://www.bohemiancoding.com/sketch -->
    <title>remove</title>
    <desc>Created with Sketch.</desc>
    <defs>
        <path d="M5,3 L5,1.66666667 C5,0.640454044 5.96068107,0 7,0 L9,0 C10.0393189,0 11,0.640454044 11,1.66666667 L11,3 L14,3 C14.5522847,3 15,3.44771525 15,4 C15,4.55228475 14.5522847,5 14,5 L13,5 L13,14 C13,15.1045695 12.1045695,16 11,16 L5,16 C3.8954305,16 3,15.1045695 3,14 L3,5 L2,5 C1.44771525,5 1,4.55228475 1,4 C1,3.44771525 1.44771525,3 2,3 L5,3 Z M7,3 L9,3 L9,2 L7,2 L7,3 Z M5,5 L5,14 L11,14 L11,5 L5,5 Z" id="path-trash"></path>
    </defs>
    <g id="remove" stroke="none" stroke-width="1" fill="none" fill-rule="evenodd">
        <mask id="mask-trash" fill="white">
            <use xlink:href="#path-trash"></use>
        </mask>
        <use id="Combined-Shape" fill="#000000" fill-rule="nonzero" xlink:href="#path-trash"></use>
        <g id="colors" mask="url(#mask-trash)"></g>
    </g>
</svg>