<?xml version="1.0" encoding="UTF-8"?>
<svg width="16px" height="16px" viewBox="0 0 16 16" version="1.1" xmlns="http://www.w3.org/2000/svg" xmlns:xlink="http://www.w3.org/1999/xlink">
    <!-- Generator: Sketch 52.6 (67491) - http://www.bohemiancoding.com/sketch -->
    <title>show</title>
    <desc>Created with Sketch.</desc>
    <defs>
        <path d="M8,3.6 C5.89345446,3.6 3.85560832,5.00177097 1.88682909,8 C3.85560832,10.998229 5.89345446,12.4 8,12.4 C10.1065455,12.4 12.1443917,10.998229 14.1131709,8 C12.1443917,5.00177097 10.1065455,3.6 8,3.6 Z M8,14 C5.05448133,14 2.38781467,12 0,8 C2.38781467,4 5.05448133,2 8,2 C10.9455187,2 13.6121853,4 16,8 C13.6121853,12 10.9455187,14 8,14 Z M8,11 C6.34314575,11 5,9.65685425 5,8 C5,6.34314575 6.34314575,5 8,5 C9.65685425,5 11,6.34314575 11,8 C11,9.65685425 9.65685425,11 8,11 Z" id="path-show"></path>
    </defs>
    <g id="show" stroke="none" stroke-width="1" fill="none" fill-rule="evenodd">
        <mask id="mask-show" fill="white">
            <use xlink:href="#path-show"></use>
        </mask>
        <use id="Combined-Shape" fill="#979797" fill-rule="nonzero" xlink:href="#path-show"></use>
        <g id="color" mask="url(#mask-show)" fill-rule="nonzero"></g>
    </g>
</svg>